PathFileType  4	(X/Y/Z) C:\Users\antoi\Documents\MyRepositories\mobilecap\ResultsAnalysis
DataRate	CameraRate	NumFrames	NumMarkers	Units	OrigDataRate	OrigDataStartFrame	OrigNumFrames
100.0	100.0	4	51	mm	100.0	37	289
Frame#	Time	r_knee			r_shank_antsup			r_ankle			r_calc			r_5meta			r_toe			L_knee			L_shank_antsup			L_ankle			L_calc			L_5meta			L_toe			r_sh2			r_sh3			r_sh4			L_sh2			L_sh3			r_thigh1			r_thigh2			r_thigh3			r_thigh4			r_thigh5			L_thigh1			L_thigh2			L_thigh3			L_thigh4			r.ASIS			r.PSIS			L.ASIS			L.PSIS			C7			R_Shoulder			L_Shoulder			R_Sternum			L_Sternum			R_humerus			R_elbow_med			R_elbow_lat			R_forearm			R_wrist_radius			R_wrist_ulna			L_humerus			L_elbow_med			L_elbow_lat			L_forearm			L_wrist_radius			L_wrist_ulna			R_HJC			L_HJC			R_HJC_reg			L_HJC_reg			
		X1	Y1	Z1	X2	Y2	Z2	X3	Y3	Z3	X4	Y4	Z4	X5	Y5	Z5	X6	Y6	Z6	X7	Y7	Z7	X8	Y8	Z8	X9	Y9	Z9	X10	Y10	Z10	X11	Y11	Z11	X12	Y12	Z12	X13	Y13	Z13	X14	Y14	Z14	X15	Y15	Z15	X16	Y16	Z16	X17	Y17	Z17	X18	Y18	Z18	X19	Y19	Z19	X20	Y20	Z20	X21	Y21	Z21	X22	Y22	Z22	X23	Y23	Z23	X24	Y24	Z24	X25	Y25	Z25	X26	Y26	Z26	X27	Y27	Z27	X28	Y28	Z28	X29	Y29	Z29	X30	Y30	Z30	X31	Y31	Z31	X32	Y32	Z32	X33	Y33	Z33	X34	Y34	Z34	X35	Y35	Z35	X36	Y36	Z36	X37	Y37	Z37	X38	Y38	Z38	X39	Y39	Z39	X40	Y40	Z40	X41	Y41	Z41	X42	Y42	Z42	X43	Y43	Z43	X44	Y44	Z44	X45	Y45	Z45	X46	Y46	Z46	X47	Y47	Z47	X48	Y48	Z48	X49	Y49	Z49	X50	Y50	Z50	X51	Y51	Z51	

37	0.36000000	-1197.38329	841.43914	-445.79769	-1180.19845	754.54905	-429.95988	-1295.50957	409.05428	-452.52833	-1354.09557	357.48803	-502.96207	-1157.26022	347.84791	-406.63637	-1120.24275	373.66112	-464.56636	-1185.05383	835.86393	-745.63262	-1172.07592	714.39919	-758.03598	-1287.94417	406.77502	-749.42375	-1359.51150	359.90578	-712.68167	-1139.33391	341.06421	-781.29893	-1116.38508	367.32724	-716.71195	-1204.15335	643.69984	-424.90645	-1252.37070	769.76075	-417.00131	-1284.80274	657.98802	-416.63633	-1254.29864	741.66811	-783.01394	-1278.14752	620.20670	-779.91947	-1172.96959	1162.31479	-414.59987	-1147.50603	1055.36701	-426.95398	-1194.22343	1015.67766	-402.61437	-1282.57076	1130.93165	-418.16239	-1248.33353	1019.45853	-416.40243	-1147.06771	1164.07442	-763.22348	-1122.25982	1028.03188	-756.17486	-1261.96742	1140.11854	-782.99554	-1228.19290	1004.53053	-778.91683	-1163.84524	1340.03853	-459.34109	-1342.70406	1413.91616	-550.70718	-1145.80040	1335.85306	-718.33619	-1334.38945	1411.87727	-659.85651	-1210.93564	1916.47476	-616.23015	-1185.29661	1887.28173	-438.67297	-1136.52648	1876.78160	-767.27827	-1082.84960	1818.32667	-563.59258	-1077.22291	1811.23471	-622.80973	-1313.28541	1669.32088	-321.88587	-1387.40245	1585.31222	-385.50672	-1370.90357	1599.63673	-300.38684	-1335.69946	1441.30521	-274.27034	-1320.14982	1327.19742	-277.20435	-1355.01927	1336.17720	-249.81218	-1252.45499	1673.65811	-891.43126	-1347.71625	1610.70076	-853.68082	-1317.64612	1612.20099	-916.20189	-1305.54921	1437.58532	-949.02823	-1299.52298	1337.12299	-943.39463	-1327.95350	1343.97966	-971.85924	-1262.18898	1278.55619	-473.49483	-1242.52272	1274.27559	-702.98195	-1248.59424	1279.14744	-501.61327	-1235.57750	1275.95730	-672.46136	
38	0.37000000	-1195.94030	840.99207	-445.41404	-1178.96240	754.05471	-429.75611	-1295.59083	409.00219	-452.42906	-1354.24514	357.38828	-502.80688	-1157.26060	347.96236	-406.68324	-1120.31112	373.87885	-464.55691	-1182.71645	835.34818	-744.98361	-1170.18876	713.91514	-757.49393	-1287.91122	406.92327	-749.11452	-1359.75317	359.93130	-712.40002	-1139.34662	341.32201	-781.11882	-1116.40810	367.50934	-716.46764	-1203.35726	643.21048	-424.90000	-1250.98085	769.41801	-416.61020	-1283.96870	657.92404	-416.24676	-1252.33851	741.77271	-782.46874	-1276.89754	620.68482	-779.60561	-1173.12793	1161.81780	-413.98603	-1147.12149	1054.86952	-426.58647	-1193.77165	1015.12847	-402.12603	-1282.56383	1130.11799	-417.20831	-1247.85089	1018.70905	-415.93804	-1147.12697	1163.86519	-762.69891	-1121.37422	1027.89140	-755.26721	-1262.07995	1138.89084	-782.12115	-1227.01126	1003.62658	-778.26366	-1164.53038	1338.90411	-458.79685	-1342.41775	1414.10205	-549.89698	-1146.78168	1334.73115	-717.59983	-1334.75987	1411.75086	-659.02519	-1205.64076	1915.57236	-615.07321	-1180.43619	1886.22451	-437.63141	-1131.17436	1875.27057	-766.15147	-1078.73148	1816.16116	-563.24692	-1073.06198	1808.98877	-621.65280	-1315.13366	1673.52819	-320.01888	-1391.85058	1591.96870	-383.59004	-1375.37884	1606.09226	-298.57817	-1347.90645	1446.41738	-270.84017	-1337.90951	1331.67263	-272.81127	-1372.56579	1342.56934	-245.63812	-1253.84969	1677.11636	-891.08206	-1351.52557	1618.11608	-852.86206	-1321.85481	1618.86448	-915.90304	-1319.42598	1443.96342	-950.78970	-1318.60839	1343.34364	-946.56212	-1347.29205	1351.59464	-974.10559	-1263.13741	1278.12105	-472.73936	-1243.80013	1273.69519	-702.25156	-1249.41573	1279.19108	-500.36850	-1237.43347	1275.51103	-671.14072	
39	0.38000000	-1194.42941	840.41824	-444.96281	-1177.66208	753.60265	-429.53195	-1295.63409	408.93469	-452.32113	-1354.31520	357.29598	-502.67729	-1157.27093	348.10449	-406.70726	-1120.34078	374.14807	-464.55814	-1180.15575	834.73620	-744.21880	-1168.16737	713.44491	-757.03425	-1287.76473	407.08198	-748.83836	-1359.85192	360.02588	-712.13072	-1139.29477	341.50868	-780.99843	-1116.33588	367.67850	-716.18212	-1202.55607	642.84281	-424.67622	-1249.75411	769.86298	-415.80641	-1283.00571	657.72226	-415.83320	-1250.25382	741.78453	-781.63282	-1275.42893	621.11901	-779.55421	-1173.16549	1161.33762	-413.45747	-1146.72627	1054.40143	-426.22539	-1193.33156	1014.47657	-401.68328	-1282.43989	1129.32049	-416.07397	-1247.26874	1017.92094	-415.36215	-1147.47744	1163.45492	-761.94621	-1120.37483	1027.80898	-754.34342	-1262.25999	1137.40133	-781.28241	-1225.64915	1002.61783	-777.79101	-1165.23684	1337.68687	-458.13329	-1342.24932	1414.11812	-548.85614	-1147.83660	1333.59012	-716.81411	-1335.38922	1411.44222	-657.67952	-1200.32341	1914.47747	-613.96452	-1175.36936	1885.13968	-436.72151	-1125.60874	1873.67412	-764.98648	-1074.39840	1813.78429	-562.51997	-1068.67411	1806.50399	-620.43116	-1316.81368	1677.81794	-318.44061	-1396.39705	1599.42658	-381.76198	-1379.86268	1613.22192	-296.80725	-1360.34510	1452.65633	-267.55794	-1356.06888	1337.32120	-268.69349	-1390.29128	1350.37803	-241.49537	-1255.53916	1680.88469	-889.93973	-1355.28711	1626.29262	-851.77583	-1326.12558	1626.16912	-915.19013	-1333.44538	1451.74287	-952.34831	-1338.05846	1351.14326	-949.25429	-1366.79766	1361.03673	-976.14403	-1264.01594	1277.52050	-471.77410	-1245.20351	1273.04558	-701.32896	-1250.18593	1279.16728	-498.90607	-1239.42462	1274.96787	-669.65332	
40	0.39000000	-1192.82600	840.10445	-444.48998	-1176.32407	753.06732	-429.24475	-1295.65739	408.84024	-452.23379	-1354.33028	357.19440	-502.56243	-1157.29109	348.22263	-406.68989	-1120.34063	374.41532	-464.51450	-1177.69200	834.11971	-743.25334	-1166.18069	712.93514	-756.47924	-1287.52075	407.22173	-748.58014	-1359.54316	360.23956	-712.04973	-1139.23545	341.67088	-780.82589	-1116.23507	367.84100	-715.96712	-1201.54113	642.53360	-424.33490	-1248.54104	770.08716	-415.20832	-1281.88605	657.33367	-415.43329	-1248.16907	741.73514	-780.70987	-1274.15396	621.14476	-778.82138	-1173.24197	1160.80150	-412.90062	-1146.45810	1054.06759	-425.54187	-1192.82411	1013.74963	-401.22687	-1282.43058	1128.21012	-415.27831	-1246.72467	1016.96025	-414.75004	-1147.83582	1162.95612	-761.13649	-1119.35637	1027.62705	-753.50091	-1262.30935	1135.88723	-780.51426	-1224.36578	1001.48683	-777.06993	-1165.96614	1336.45126	-457.34041	-1342.09405	1414.11607	-547.71565	-1148.93086	1332.38661	-716.09244	-1335.86528	1411.13353	-656.66127	-1194.80442	1913.05931	-612.66714	-1169.99417	1883.92570	-435.86224	-1119.79783	1871.99508	-764.02819	-1069.82843	1811.08805	-561.15613	-1064.09242	1803.73710	-619.16754	-1318.38889	1682.32493	-317.05622	-1400.94300	1607.47984	-380.07098	-1384.23757	1620.89682	-295.14849	-1372.95389	1459.88193	-264.54197	-1374.46503	1344.04357	-264.85265	-1408.10832	1359.47293	-237.72625	-1257.45829	1684.99537	-888.32910	-1358.91830	1635.11494	-850.56340	-1330.38664	1633.96786	-914.06995	-1347.45774	1460.83631	-953.71144	-1357.56452	1360.63192	-951.88663	-1386.20994	1372.36184	-978.24035	-1264.95630	1276.93235	-470.83282	-1246.58528	1272.35283	-700.42154	-1251.08588	1279.01107	-497.48531	-1241.31720	1274.33630	-668.31060	
